<mxfile host="Electron" modified="2023-05-22T16:22:25.119Z" agent="Mozilla/5.0 (Windows NT 10.0; Win64; x64) AppleWebKit/537.36 (KHTML, like Gecko) draw.io/21.2.8 Chrome/112.0.5615.165 Electron/24.2.0 Safari/537.36" etag="4GQJqywmn9GdDWK4LyXK" version="21.2.8" type="device">
  <diagram name="Pagina-1" id="0tmAqdvKTQvhZpEtDs5T">
    <mxGraphModel dx="-1959" dy="-563" grid="1" gridSize="10" guides="1" tooltips="1" connect="1" arrows="1" fold="1" page="1" pageScale="1" pageWidth="827" pageHeight="1169" math="0" shadow="0">
      <root>
        <mxCell id="0" />
        <mxCell id="1" parent="0" />
        <mxCell id="HH5XnydQagRsjf3C5l6K-1" value="Organizzatore" style="shape=umlActor;verticalLabelPosition=bottom;verticalAlign=top;html=1;outlineConnect=0;" parent="1" vertex="1">
          <mxGeometry x="2625" y="1972" width="30" height="60" as="geometry" />
        </mxCell>
        <mxCell id="HH5XnydQagRsjf3C5l6K-2" value="Sistema" style="verticalAlign=top;align=center;spacingTop=8;spacingLeft=2;spacingRight=12;shape=cube;size=10;direction=south;fontStyle=4;html=1;whiteSpace=wrap;" parent="1" vertex="1">
          <mxGeometry x="2960" y="1987" width="120" height="45" as="geometry" />
        </mxCell>
        <mxCell id="HH5XnydQagRsjf3C5l6K-3" value="" style="endArrow=none;dashed=1;html=1;rounded=0;entryX=0;entryY=0;entryDx=45;entryDy=65;entryPerimeter=0;" parent="1" target="HH5XnydQagRsjf3C5l6K-2" edge="1">
          <mxGeometry width="50" height="50" relative="1" as="geometry">
            <mxPoint x="3015" y="2612" as="sourcePoint" />
            <mxPoint x="2705" y="1777" as="targetPoint" />
          </mxGeometry>
        </mxCell>
        <mxCell id="HH5XnydQagRsjf3C5l6K-4" value="Sistema" style="verticalAlign=top;align=center;spacingTop=8;spacingLeft=2;spacingRight=12;shape=cube;size=10;direction=south;fontStyle=4;html=1;whiteSpace=wrap;" parent="1" vertex="1">
          <mxGeometry x="2960" y="1987" width="120" height="45" as="geometry" />
        </mxCell>
        <mxCell id="HH5XnydQagRsjf3C5l6K-5" value="" style="endArrow=none;dashed=1;html=1;rounded=0;" parent="1" edge="1">
          <mxGeometry width="50" height="50" relative="1" as="geometry">
            <mxPoint x="2640" y="2612" as="sourcePoint" />
            <mxPoint x="2640" y="2032" as="targetPoint" />
          </mxGeometry>
        </mxCell>
        <mxCell id="HH5XnydQagRsjf3C5l6K-6" value="1. verificaStatoTurni()" style="endArrow=classic;html=1;rounded=0;" parent="1" edge="1">
          <mxGeometry width="50" height="50" relative="1" as="geometry">
            <mxPoint x="2650" y="2082" as="sourcePoint" />
            <mxPoint x="3010" y="2082" as="targetPoint" />
          </mxGeometry>
        </mxCell>
        <mxCell id="HH5XnydQagRsjf3C5l6K-7" value="viene fornito il calendario contenente i turni" style="endArrow=classic;html=1;rounded=0;dashed=1;" parent="1" edge="1">
          <mxGeometry width="50" height="50" relative="1" as="geometry">
            <mxPoint x="3010" y="2108.52" as="sourcePoint" />
            <mxPoint x="2650" y="2108.52" as="targetPoint" />
          </mxGeometry>
        </mxCell>
        <mxCell id="HH5XnydQagRsjf3C5l6K-8" value="2. creazioneEvento(dataInizio,dataFine, nomeEvento, luogo,&amp;nbsp;numero partecipanti, cliente)" style="endArrow=classic;html=1;rounded=0;" parent="1" edge="1">
          <mxGeometry width="50" height="50" relative="1" as="geometry">
            <mxPoint x="2650" y="2154.5299999999997" as="sourcePoint" />
            <mxPoint x="3010" y="2154.5299999999997" as="targetPoint" />
          </mxGeometry>
        </mxCell>
        <mxCell id="HH5XnydQagRsjf3C5l6K-9" value="verrà creato un evento" style="endArrow=classic;html=1;rounded=0;dashed=1;" parent="1" edge="1">
          <mxGeometry width="50" height="50" relative="1" as="geometry">
            <mxPoint x="3010" y="2181.05" as="sourcePoint" />
            <mxPoint x="2650" y="2181.05" as="targetPoint" />
          </mxGeometry>
        </mxCell>
        <mxCell id="HH5XnydQagRsjf3C5l6K-10" value="3. aggiungiServizio(nome, orarioInizio, orarioFine, qtyPersonale, dettaglio)" style="endArrow=classic;html=1;rounded=0;" parent="1" edge="1">
          <mxGeometry width="50" height="50" relative="1" as="geometry">
            <mxPoint x="2650" y="2221.52" as="sourcePoint" />
            <mxPoint x="3010" y="2221.52" as="targetPoint" />
          </mxGeometry>
        </mxCell>
        <mxCell id="HH5XnydQagRsjf3C5l6K-11" value="verrà creato un servizio relativo all&#39;evento" style="endArrow=classic;html=1;rounded=0;dashed=1;" parent="1" edge="1">
          <mxGeometry width="50" height="50" relative="1" as="geometry">
            <mxPoint x="3005" y="2252" as="sourcePoint" />
            <mxPoint x="2645" y="2252" as="targetPoint" />
          </mxGeometry>
        </mxCell>
        <mxCell id="HH5XnydQagRsjf3C5l6K-12" value="LOOP" style="shape=umlFrame;whiteSpace=wrap;html=1;pointerEvents=0;fillColor=#dae8fc;strokeColor=#6c8ebf;width=35;height=15;strokeWidth=2;" parent="1" vertex="1">
          <mxGeometry x="2625" y="2207.5" width="400" height="62" as="geometry" />
        </mxCell>
        <mxCell id="HH5XnydQagRsjf3C5l6K-13" value="4. sceltaChef(chef)" style="endArrow=classic;html=1;rounded=0;" parent="1" edge="1">
          <mxGeometry width="50" height="50" relative="1" as="geometry">
            <mxPoint x="2645" y="2284" as="sourcePoint" />
            <mxPoint x="3005" y="2284" as="targetPoint" />
          </mxGeometry>
        </mxCell>
        <mxCell id="HH5XnydQagRsjf3C5l6K-14" value="ok" style="endArrow=classic;html=1;rounded=0;dashed=1;" parent="1" edge="1">
          <mxGeometry width="50" height="50" relative="1" as="geometry">
            <mxPoint x="3002.5" y="2309.48" as="sourcePoint" />
            <mxPoint x="2642.5" y="2309.48" as="targetPoint" />
          </mxGeometry>
        </mxCell>
        <mxCell id="HH5XnydQagRsjf3C5l6K-15" value="LOOP" style="shape=umlFrame;whiteSpace=wrap;html=1;pointerEvents=0;fillColor=#dae8fc;strokeColor=#6c8ebf;width=43;height=15;strokeWidth=2;" parent="1" vertex="1">
          <mxGeometry x="2607.5" y="2192" width="435" height="398" as="geometry" />
        </mxCell>
        <mxCell id="HH5XnydQagRsjf3C5l6K-16" value="6. assegnamentoPersonale(Turno, Personale, ruolo?)" style="endArrow=classic;html=1;rounded=0;" parent="1" edge="1">
          <mxGeometry width="50" height="50" relative="1" as="geometry">
            <mxPoint x="2647.5" y="2613.7799999999997" as="sourcePoint" />
            <mxPoint x="3007.5" y="2613.7799999999997" as="targetPoint" />
            <mxPoint as="offset" />
          </mxGeometry>
        </mxCell>
        <mxCell id="HH5XnydQagRsjf3C5l6K-17" value="verrà assegnato il numero necessario di personale all&#39;evento" style="endArrow=classic;html=1;rounded=0;dashed=1;" parent="1" edge="1">
          <mxGeometry width="50" height="50" relative="1" as="geometry">
            <mxPoint x="3005" y="2639.26" as="sourcePoint" />
            <mxPoint x="2645" y="2639.26" as="targetPoint" />
          </mxGeometry>
        </mxCell>
        <mxCell id="HH5XnydQagRsjf3C5l6K-18" value="7. aggiuntaNota(Servizio?,Evento?, descrizione)" style="endArrow=classic;html=1;rounded=0;" parent="1" edge="1">
          <mxGeometry width="50" height="50" relative="1" as="geometry">
            <mxPoint x="2647.5" y="2665.5699999999997" as="sourcePoint" />
            <mxPoint x="3007.5" y="2665.5699999999997" as="targetPoint" />
            <mxPoint as="offset" />
          </mxGeometry>
        </mxCell>
        <mxCell id="HH5XnydQagRsjf3C5l6K-19" value="ok" style="endArrow=classic;html=1;rounded=0;dashed=1;" parent="1" edge="1">
          <mxGeometry width="50" height="50" relative="1" as="geometry">
            <mxPoint x="3005" y="2691.05" as="sourcePoint" />
            <mxPoint x="2645" y="2691.05" as="targetPoint" />
          </mxGeometry>
        </mxCell>
        <mxCell id="HH5XnydQagRsjf3C5l6K-20" value="LOOP" style="shape=umlFrame;whiteSpace=wrap;html=1;pointerEvents=0;fillColor=#dae8fc;strokeColor=#6c8ebf;width=60;height=20;strokeWidth=2;" parent="1" vertex="1">
          <mxGeometry x="2590" y="2190" width="470" height="510" as="geometry" />
        </mxCell>
        <mxCell id="HH5XnydQagRsjf3C5l6K-21" value="OPT" style="shape=umlFrame;whiteSpace=wrap;html=1;pointerEvents=0;fillColor=#d5e8d4;strokeColor=#82b366;width=30;height=15;" parent="1" vertex="1">
          <mxGeometry x="2631.25" y="2650" width="390" height="50" as="geometry" />
        </mxCell>
        <mxCell id="HH5XnydQagRsjf3C5l6K-22" value="passo 5" style="text;html=1;align=center;verticalAlign=middle;resizable=0;points=[];autosize=1;strokeColor=none;fillColor=none;" parent="1" vertex="1">
          <mxGeometry x="2780" y="1920" width="70" height="30" as="geometry" />
        </mxCell>
        <mxCell id="HH5XnydQagRsjf3C5l6K-23" value="LOOP" style="shape=umlFrame;whiteSpace=wrap;html=1;pointerEvents=0;fillColor=#dae8fc;strokeColor=#6c8ebf;width=33;height=15;strokeWidth=2;" parent="1" vertex="1">
          <mxGeometry x="2608.75" y="2590" width="432.5" height="60" as="geometry" />
        </mxCell>
        <mxCell id="HH5XnydQagRsjf3C5l6K-24" value="5. approvazioneMenu(servizio)" style="endArrow=classic;html=1;rounded=0;" parent="1" edge="1">
          <mxGeometry width="50" height="50" relative="1" as="geometry">
            <mxPoint x="2646.25" y="2345.69" as="sourcePoint" />
            <mxPoint x="3006.25" y="2345.69" as="targetPoint" />
            <mxPoint as="offset" />
          </mxGeometry>
        </mxCell>
        <mxCell id="HH5XnydQagRsjf3C5l6K-25" value="ok" style="endArrow=classic;html=1;rounded=0;dashed=1;" parent="1" edge="1">
          <mxGeometry width="50" height="50" relative="1" as="geometry">
            <mxPoint x="3005" y="2370" as="sourcePoint" />
            <mxPoint x="2645" y="2370" as="targetPoint" />
            <mxPoint as="offset" />
          </mxGeometry>
        </mxCell>
        <mxCell id="HH5XnydQagRsjf3C5l6K-26" value="ALT" style="shape=umlFrame;whiteSpace=wrap;html=1;pointerEvents=0;fillColor=#e51400;strokeColor=#B20000;width=35;height=15;swimlaneFillColor=none;fillStyle=auto;fontColor=#ffffff;" parent="1" vertex="1">
          <mxGeometry x="2633" y="2320" width="387" height="170" as="geometry" />
        </mxCell>
        <mxCell id="HH5XnydQagRsjf3C5l6K-27" value="" style="endArrow=none;dashed=1;html=1;dashPattern=1 3;strokeWidth=2;rounded=0;exitX=-0.006;exitY=0.613;exitDx=0;exitDy=0;exitPerimeter=0;fillColor=#e51400;strokeColor=#B20000;" parent="1" edge="1">
          <mxGeometry width="50" height="50" relative="1" as="geometry">
            <mxPoint x="2633" y="2400" as="sourcePoint" />
            <mxPoint x="3019" y="2400" as="targetPoint" />
          </mxGeometry>
        </mxCell>
        <mxCell id="HH5XnydQagRsjf3C5l6K-28" value="5a.1 propostaModificaMenu(menu,servizio, porpostaModifica)" style="endArrow=classic;html=1;rounded=0;" parent="1" edge="1">
          <mxGeometry x="0.0833" width="50" height="50" relative="1" as="geometry">
            <mxPoint x="2645" y="2510" as="sourcePoint" />
            <mxPoint x="3005" y="2510" as="targetPoint" />
            <mxPoint as="offset" />
          </mxGeometry>
        </mxCell>
        <mxCell id="HH5XnydQagRsjf3C5l6K-29" value="ok" style="endArrow=classic;html=1;rounded=0;dashed=1;" parent="1" edge="1">
          <mxGeometry width="50" height="50" relative="1" as="geometry">
            <mxPoint x="3005" y="2534.52" as="sourcePoint" />
            <mxPoint x="2645" y="2534.52" as="targetPoint" />
            <mxPoint as="offset" />
          </mxGeometry>
        </mxCell>
        <mxCell id="HH5XnydQagRsjf3C5l6K-30" value="5.a.1 il servizio ha stato terminato" style="endArrow=classic;html=1;rounded=0;dashed=1;" parent="1" edge="1">
          <mxGeometry width="50" height="50" relative="1" as="geometry">
            <mxPoint x="3005" y="2420" as="sourcePoint" />
            <mxPoint x="2645" y="2420" as="targetPoint" />
            <mxPoint as="offset" />
          </mxGeometry>
        </mxCell>
        <mxCell id="HH5XnydQagRsjf3C5l6K-31" value="" style="endArrow=none;dashed=1;html=1;dashPattern=1 3;strokeWidth=2;rounded=0;exitX=-0.006;exitY=0.613;exitDx=0;exitDy=0;exitPerimeter=0;fillColor=#e51400;strokeColor=#B20000;" parent="1" edge="1">
          <mxGeometry width="50" height="50" relative="1" as="geometry">
            <mxPoint x="2631.25" y="2440" as="sourcePoint" />
            <mxPoint x="3017.25" y="2440" as="targetPoint" />
          </mxGeometry>
        </mxCell>
        <mxCell id="HH5XnydQagRsjf3C5l6K-32" value="ALT" style="shape=umlFrame;whiteSpace=wrap;html=1;pointerEvents=0;fillColor=#e51400;strokeColor=#B20000;width=35;height=15;swimlaneFillColor=none;fillStyle=auto;fontColor=#ffffff;" parent="1" vertex="1">
          <mxGeometry x="2633" y="2490" width="387" height="100" as="geometry" />
        </mxCell>
        <mxCell id="HH5XnydQagRsjf3C5l6K-33" value="5.a.2 il servizio non ha un menu associato" style="endArrow=classic;html=1;rounded=0;dashed=1;" parent="1" edge="1">
          <mxGeometry width="50" height="50" relative="1" as="geometry">
            <mxPoint x="3005" y="2462" as="sourcePoint" />
            <mxPoint x="2645" y="2462" as="targetPoint" />
            <mxPoint as="offset" />
          </mxGeometry>
        </mxCell>
        <mxCell id="HH5XnydQagRsjf3C5l6K-34" value="" style="endArrow=none;dashed=1;html=1;dashPattern=1 3;strokeWidth=2;rounded=0;exitX=-0.006;exitY=0.613;exitDx=0;exitDy=0;exitPerimeter=0;fillColor=#e51400;strokeColor=#B20000;" parent="1" edge="1">
          <mxGeometry width="50" height="50" relative="1" as="geometry">
            <mxPoint x="2634" y="2550" as="sourcePoint" />
            <mxPoint x="3020" y="2550" as="targetPoint" />
          </mxGeometry>
        </mxCell>
        <mxCell id="HH5XnydQagRsjf3C5l6K-35" value="5.a.1.a il servizio è in stato terminato" style="endArrow=classic;html=1;rounded=0;dashed=1;" parent="1" edge="1">
          <mxGeometry width="50" height="50" relative="1" as="geometry">
            <mxPoint x="3006.5" y="2570" as="sourcePoint" />
            <mxPoint x="2646.5" y="2570" as="targetPoint" />
            <mxPoint as="offset" />
          </mxGeometry>
        </mxCell>
      </root>
    </mxGraphModel>
  </diagram>
</mxfile>
